<?xml version="1.0" encoding="utf-8"?>
<!-- Generator: Adobe Illustrator 22.1.0, SVG Export Plug-In . SVG Version: 6.00 Build 0)  -->
<svg version="1.1" id="Layer_1" xmlns="http://www.w3.org/2000/svg" xmlns:xlink="http://www.w3.org/1999/xlink" x="0px" y="0px"
	 viewBox="0 0 323 80" style="enable-background:new 0 0 323 80;" xml:space="preserve">
<style type="text/css">
	.st0{fill:#ED1C24;}
	.st1{fill:#FFFFFF;}
</style>
<rect class="st0" width="323" height="80"/>
<g>
	<path class="st1" d="M67.6,28.3c0,4.8-1.5,8.3-4.5,10.6c-3,2.3-7.7,3.4-14,3.4h-4.6v8.6h6.2v7.5H27.4v-7.5h5.6V21.7h-5.6v-7.5h21.5
		c6.3,0,11,1.1,14.1,3.4C66,20,67.6,23.5,67.6,28.3z M55.4,28.3c0-1.8-0.4-3.2-1.1-4.2s-1.8-1.6-3.2-1.9s-3-0.4-4.8-0.4h-1.8V35h1.8
		c2.4,0,4.3-0.2,5.7-0.7s2.3-1.2,2.8-2.2C55.2,31.1,55.4,29.8,55.4,28.3z"/>
	<path class="st1" d="M100.2,45.1h-23c0.2,2.4,1,4.2,2.4,5.6s3.2,2.1,5.4,2.1c2.4,0,4.8-1.2,7.1-3.6l7.6,2.5
		c-1.7,2.5-3.8,4.4-6.2,5.7s-5.4,1.9-8.8,1.9s-6.4-0.6-9-1.9c-2.6-1.3-4.6-3.1-6.1-5.4s-2.2-5.1-2.2-8.3c0-3.1,0.7-6,2.2-8.5
		c1.5-2.5,3.5-4.5,6.1-6s5.3-2.2,8.3-2.2c3.2,0,6.1,0.7,8.5,2.2s4.3,3.6,5.6,6.4C99.5,38.2,100.2,41.4,100.2,45.1z M83.7,33.4
		c-1.8,0-3.2,0.5-4.2,1.5c-1.1,1-1.7,2.6-2,4.7h12.8c-0.3-1.8-1-3.3-2.2-4.5S85.4,33.4,83.7,33.4z"/>
	<path class="st1" d="M127.9,27.2v9.2c-2.7,0.2-4.8,0.6-6.4,1.3s-2.8,1.8-3.7,3.5s-1.3,4-1.3,7v3h6.1v7.1H101v-7.1h5.7V34.8h-5.4
		v-7.2h14.4v7.8c0.7-2.4,2.1-4.3,4-5.9c2-1.6,4.4-2.3,7.3-2.3C127.3,27.2,127.6,27.2,127.9,27.2z"/>
	<path class="st1" d="M156.1,17.8l-7.1,5.6c-0.4-1.1-0.7-2-1.2-2.5c-0.4-0.6-1-0.8-1.6-0.8c-0.9,0-1.5,0.4-1.9,1.1
		c-0.4,0.7-0.6,1.8-0.6,3.4v3.2h5.4v7.2h-5.4v16.5h5.7v7.1h-20v-7.1h4.5V34.8h-4.1v-7.2h4.1v-3.2c0-3.4,1-6,3-8c2-2,5-3,8.8-3
		C150.6,13.4,154.1,14.9,156.1,17.8z"/>
	<path class="st1" d="M182.6,45.1h-23c0.2,2.4,1,4.2,2.4,5.6s3.2,2.1,5.4,2.1c2.4,0,4.8-1.2,7.1-3.6l7.6,2.5
		c-1.7,2.5-3.8,4.4-6.2,5.7s-5.4,1.9-8.8,1.9s-6.4-0.6-9-1.9c-2.6-1.3-4.6-3.1-6.1-5.4s-2.2-5.1-2.2-8.3c0-3.1,0.7-6,2.2-8.5
		c1.5-2.5,3.5-4.5,6.1-6s5.3-2.2,8.3-2.2c3.2,0,6.1,0.7,8.5,2.2s4.3,3.6,5.6,6.4C181.9,38.2,182.5,41.4,182.6,45.1z M166.1,33.4
		c-1.8,0-3.2,0.5-4.2,1.5c-1.1,1-1.7,2.6-2,4.7h12.8c-0.3-1.8-1-3.3-2.2-4.5S167.8,33.4,166.1,33.4z"/>
	<path class="st1" d="M203.5,28.7v-1.1h7v9h-7c-0.6-2.2-2.9-3.3-6.7-3.3c-2.8,0-4.2,0.8-4.2,2.3c0,0.7,0.4,1.2,1.1,1.5
		c0.7,0.3,1.8,0.6,3.3,0.8c4,0.5,7.2,1.2,9.5,2.2c2.3,0.9,3.9,2.1,4.8,3.5c0.9,1.4,1.4,3.1,1.4,5.1c0,3.2-1.1,5.8-3.3,7.6
		c-2.2,1.8-5.2,2.7-9,2.7c-3.7,0-6.2-0.7-7.6-2.2v1.5h-7.1V47.8h7.1c0.2,1.5,0.9,2.6,2.1,3.5c1.2,0.8,2.7,1.3,4.5,1.3
		c1.8,0,3.1-0.2,3.9-0.6c0.8-0.4,1.3-1.1,1.3-2.1c0-0.7-0.2-1.2-0.5-1.6s-1-0.7-2-1s-2.5-0.6-4.6-1c-4.6-0.7-7.9-1.9-9.9-3.5
		s-3-3.8-3-6.5c0-2.8,1-5,3.1-6.6c2.1-1.6,4.9-2.4,8.3-2.4C198.5,27.2,201.1,27.7,203.5,28.7z"/>
	<path class="st1" d="M233.3,28.7v-1.1h7v9h-7c-0.6-2.2-2.9-3.3-6.7-3.3c-2.8,0-4.2,0.8-4.2,2.3c0,0.7,0.4,1.2,1.1,1.5
		c0.7,0.3,1.8,0.6,3.3,0.8c4,0.5,7.2,1.2,9.5,2.2c2.3,0.9,3.9,2.1,4.8,3.5c0.9,1.4,1.4,3.1,1.4,5.1c0,3.2-1.1,5.8-3.3,7.6
		c-2.2,1.8-5.2,2.7-9,2.7c-3.7,0-6.2-0.7-7.6-2.2v1.5h-7.1V47.8h7.1c0.2,1.5,0.9,2.6,2.1,3.5c1.2,0.8,2.7,1.3,4.5,1.3
		c1.8,0,3.1-0.2,3.9-0.6c0.8-0.4,1.3-1.1,1.3-2.1c0-0.7-0.2-1.2-0.5-1.6s-1-0.7-2-1s-2.5-0.6-4.6-1c-4.6-0.7-7.9-1.9-9.9-3.5
		s-3-3.8-3-6.5c0-2.8,1-5,3.1-6.6c2.1-1.6,4.9-2.4,8.3-2.4C228.3,27.2,230.9,27.7,233.3,28.7z"/>
	<path class="st1" d="M263.6,51.3v7.1h-19v-7.1h4.7V34.8h-4.7v-7.2H259v23.7H263.6z M259.6,18.8c0,1.6-0.5,2.9-1.6,3.9
		s-2.3,1.5-3.8,1.5c-1.5,0-2.8-0.5-3.8-1.6c-1.1-1.1-1.6-2.3-1.6-3.8c0-1.5,0.5-2.7,1.6-3.8c1.1-1.1,2.3-1.6,3.8-1.6
		c1.5,0,2.7,0.5,3.8,1.6C259.1,16.1,259.6,17.4,259.6,18.8z"/>
	<path class="st1" d="M290,30.2v-2.6h6.7v12.5h-6.9c-1.6-3.4-4.1-5.1-7.5-5.1c-2.1,0-3.7,0.8-5.1,2.3c-1.3,1.5-2,3.4-2,5.6
		c0,2.5,0.6,4.5,1.9,6.1c1.3,1.6,3,2.4,5.1,2.4c1.5,0,3-0.4,4.4-1.3c1.4-0.9,2.5-2.1,3.4-3.6l7.6,3.4c-1.7,3.2-3.7,5.5-6.1,7
		s-5.5,2.3-9.6,2.3c-5.2,0-9.3-1.4-12.3-4.3s-4.6-6.8-4.6-11.8c0-3,0.7-5.7,2.1-8.1s3.3-4.3,5.7-5.7s5-2.1,7.8-2.1
		C283.9,27.2,287,28.2,290,30.2z"/>
</g>
</svg>
